<?xml version="1.0" standalone="no"?>
<!DOCTYPE svg PUBLIC "-//W3C//DTD SVG 20010904//EN"
 "http://www.w3.org/TR/2001/REC-SVG-20010904/DTD/svg10.dtd">
<svg version="1.0" xmlns="http://www.w3.org/2000/svg"
 width="1080.000000pt" height="1080.000000pt" viewBox="0 0 1080.000000 1080.000000"
 preserveAspectRatio="xMidYMid meet">
<metadata>
Created by potrace 1.11, written by Peter Selinger 2001-2013
</metadata>
<g transform="translate(0.000000,1080.000000) scale(0.100000,-0.100000)"
fill="#000000" stroke="none">
<path d="M4667 9606 c-90 -32 -141 -108 -141 -207 0 -52 8 -69 99 -235 54 -98
109 -199 123 -224 76 -140 148 -270 169 -302 13 -21 21 -38 17 -38 -3 0 3 -12
14 -27 10 -16 38 -64 62 -108 23 -44 65 -120 93 -169 l50 -89 -27 -51 c-15
-28 -43 -78 -63 -111 -19 -33 -45 -78 -58 -100 -12 -22 -80 -139 -150 -260
-70 -121 -136 -236 -147 -255 -45 -78 -337 -585 -423 -735 -51 -88 -149 -259
-219 -380 -69 -121 -130 -227 -135 -235 -6 -8 -34 -58 -64 -110 -30 -52 -104
-180 -164 -285 -199 -345 -305 -529 -366 -635 -33 -58 -68 -118 -78 -135 -11
-16 -22 -37 -26 -45 -4 -8 -27 -49 -51 -90 -25 -41 -53 -89 -62 -106 -10 -16
-95 -165 -191 -330 -95 -164 -221 -384 -281 -487 -59 -103 -119 -205 -133
-227 -14 -22 -25 -42 -25 -46 0 -3 -20 -39 -45 -80 -25 -40 -45 -77 -45 -81 0
-3 -6 -14 -14 -22 -7 -9 -27 -41 -43 -71 -17 -30 -60 -106 -97 -168 -36 -62
-77 -132 -90 -155 -13 -23 -49 -87 -81 -142 -31 -55 -66 -116 -77 -135 -11
-19 -71 -123 -133 -230 -62 -107 -122 -211 -132 -230 -11 -19 -35 -60 -53 -90
-18 -30 -42 -71 -53 -90 -33 -60 -244 -423 -266 -460 -11 -19 -25 -44 -31 -55
-5 -11 -23 -42 -39 -70 -16 -27 -49 -84 -73 -125 -23 -41 -47 -83 -53 -92 -5
-9 -32 -56 -60 -104 -27 -48 -58 -101 -68 -118 -10 -17 -28 -48 -40 -70 -12
-21 -26 -46 -32 -55 -8 -13 -114 -195 -150 -259 -5 -10 -30 -52 -54 -95 l-45
-77 -298 0 c-328 0 -343 -2 -391 -59 -27 -32 -27 -33 -27 -191 0 -158 0 -159
27 -191 15 -17 42 -38 60 -45 27 -12 876 -14 5315 -14 5242 0 5282 0 5323 20
68 33 75 55 75 230 0 175 -7 197 -75 230 -38 19 -63 20 -341 20 l-299 0 -35
62 c-36 65 -49 88 -142 248 -64 109 -79 136 -166 286 -35 60 -67 116 -72 124
-21 36 -80 138 -97 170 -11 19 -35 61 -54 93 -19 33 -43 75 -55 95 -12 21 -38
66 -59 102 -20 36 -48 84 -61 107 -13 23 -54 93 -90 155 -37 62 -78 133 -92
158 -14 25 -81 142 -150 260 -69 118 -134 232 -146 253 -12 20 -59 103 -106
185 -47 81 -86 153 -88 160 -2 6 -8 12 -13 12 -5 0 -9 4 -9 9 0 5 -32 64 -71
132 -162 281 -462 799 -592 1024 -77 132 -149 256 -159 275 -11 19 -35 60 -53
90 -18 30 -44 75 -57 100 -23 41 -225 390 -269 464 -10 17 -26 47 -37 66 -10
19 -93 163 -184 320 -91 157 -176 305 -190 330 -14 25 -67 117 -118 205 -51
88 -102 176 -113 195 -10 19 -43 76 -72 125 -29 50 -63 110 -77 135 -14 25
-58 101 -98 170 -40 68 -82 140 -93 160 -11 19 -78 136 -150 260 -71 124 -139
241 -150 260 -38 68 -176 307 -196 341 -12 19 -24 40 -28 48 -3 8 -36 64 -71
125 -36 61 -75 129 -87 151 -12 22 -48 84 -80 137 l-57 98 35 62 c19 35 47 84
61 111 14 26 38 68 52 95 15 26 41 74 59 107 18 33 67 122 109 198 42 75 76
140 76 144 0 3 6 14 14 22 7 9 35 57 61 106 26 50 69 128 95 175 59 108 69
138 66 197 -7 114 -94 196 -211 197 -48 0 -70 -5 -106 -26 -55 -33 -75 -61
-184 -263 -21 -38 -41 -74 -45 -80 -4 -5 -24 -41 -45 -80 -21 -38 -72 -131
-113 -205 -101 -183 -142 -259 -158 -288 l-12 -24 -13 23 c-7 13 -20 38 -29
54 -9 17 -45 82 -80 145 -65 119 -83 152 -156 284 -24 43 -44 80 -44 82 0 3
-10 21 -23 42 -25 39 -88 153 -118 212 -53 105 -167 153 -272 116z m768 -5239
c2 -12 16 -71 30 -132 15 -60 28 -119 30 -130 3 -11 21 -90 40 -175 36 -154
45 -195 46 -205 0 -2 5 -19 10 -37 5 -18 28 -114 50 -213 23 -99 50 -218 61
-265 11 -47 22 -95 24 -107 2 -12 20 -88 39 -169 20 -81 38 -163 41 -183 3
-20 10 -44 15 -53 5 -10 8 -18 5 -18 -2 0 0 -16 6 -36 5 -20 11 -45 13 -55 9
-46 77 -335 81 -340 2 -3 6 -21 9 -40 3 -19 17 -81 31 -139 14 -58 27 -114 30
-125 3 -18 16 -72 19 -85 1 -3 5 -23 10 -45 5 -22 10 -42 10 -45 2 -7 19 -84
20 -90 1 -3 4 -14 8 -25 3 -11 8 -31 11 -45 2 -14 16 -77 31 -140 26 -113 31
-136 39 -175 2 -11 12 -49 21 -85 9 -36 18 -72 20 -80 4 -22 18 -93 21 -105
16 -71 46 -194 50 -210 3 -11 7 -32 10 -46 3 -15 17 -77 33 -138 15 -61 26
-113 23 -116 -10 -10 -1842 -5 -1842 4 0 6 7 40 16 78 9 37 18 79 20 92 3 14
7 28 9 31 2 4 7 20 9 36 7 35 8 40 41 184 27 115 31 134 39 167 12 52 67 292
72 313 3 14 11 52 19 85 21 87 195 836 199 860 3 11 18 77 35 148 17 70 33
141 36 159 3 17 8 34 10 38 2 3 6 18 9 33 4 15 9 39 12 55 3 15 17 74 30 132
14 58 28 116 30 130 3 14 7 33 10 42 3 10 7 29 10 43 2 14 14 65 25 113 12 48
22 94 24 102 2 8 15 65 30 125 14 61 28 126 31 145 3 19 7 37 9 40 2 3 22 87
45 185 23 99 44 189 46 200 3 11 7 29 9 40 19 89 87 378 92 392 6 16 13 -6 38
-120z"/>
</g>
</svg>
