#define outline_width 128
#define outline_height 128
static char outline_bits[] = {
  0x00, 0x00, 0x00, 0x00, 0x00, 0x00, 0x00, 0x00, 0x00, 0x00, 0x00, 0x00, 
  0x00, 0x00, 0x00, 0x00, 0x00, 0x00, 0x00, 0x00, 0x00, 0x00, 0x00, 0x00, 
  0x00, 0x00, 0x00, 0x00, 0x00, 0x00, 0x00, 0x00, 0x00, 0x00, 0x00, 0x00, 
  0x00, 0x00, 0x00, 0x00, 0x00, 0x00, 0x00, 0x00, 0x00, 0x00, 0x00, 0x00, 
  0x00, 0x00, 0x00, 0x00, 0x00, 0x00, 0x40, 0xFF, 0xFF, 0x3F, 0x00, 0x00, 
  0x00, 0x00, 0x00, 0x00, 0x00, 0x00, 0x00, 0x00, 0x00, 0x00, 0xFE, 0xFF, 
  0xFF, 0xFF, 0x0F, 0x00, 0x00, 0x00, 0x00, 0x00, 0x00, 0x00, 0x00, 0x00, 
  0x00, 0xF0, 0xFF, 0x36, 0x11, 0xFD, 0xFF, 0x00, 0x00, 0x00, 0x00, 0x00, 
  0x00, 0x00, 0x00, 0x00, 0x00, 0xFE, 0x07, 0x00, 0x00, 0x00, 0xFE, 0x07, 
  0x00, 0x00, 0x00, 0x00, 0x00, 0x00, 0x00, 0x00, 0xC0, 0x3F, 0x00, 0x00, 
  0x00, 0x00, 0xE0, 0x1F, 0x00, 0x00, 0x00, 0x00, 0x00, 0x00, 0x00, 0x00, 
  0xF0, 0x03, 0x00, 0x00, 0x00, 0x00, 0x00, 0x7E, 0x00, 0x00, 0x00, 0x00, 
  0x00, 0x00, 0x00, 0x00, 0xFE, 0x00, 0x00, 0x00, 0x00, 0x00, 0x00, 0xF0, 
  0x00, 0x00, 0x00, 0x00, 0x00, 0x00, 0x00, 0x00, 0x1F, 0x00, 0x00, 0x00, 
  0x00, 0x00, 0x00, 0xE0, 0x03, 0x00, 0x00, 0x00, 0x00, 0x00, 0x00, 0x80, 
  0x07, 0x00, 0x00, 0x80, 0x00, 0x00, 0x00, 0x00, 0x0F, 0x00, 0x00, 0x00, 
  0x00, 0x00, 0x00, 0xE0, 0x01, 0x00, 0x00, 0x80, 0x01, 0x00, 0x00, 0x00, 
  0x0E, 0x00, 0x00, 0x00, 0x00, 0x00, 0x00, 0xF0, 0x00, 0x00, 0x00, 0x80, 
  0x01, 0x00, 0x00, 0x00, 0x1C, 0x00, 0x00, 0x00, 0x00, 0x00, 0x00, 0x78, 
  0x00, 0x00, 0x00, 0x40, 0x02, 0x00, 0x00, 0x00, 0x38, 0x00, 0x00, 0x00, 
  0x00, 0x00, 0x00, 0x38, 0x00, 0x00, 0x00, 0x20, 0x06, 0x00, 0x00, 0x00, 
  0x78, 0x00, 0x00, 0x00, 0x00, 0x00, 0x00, 0x1C, 0x00, 0x00, 0x00, 0x20, 
  0x04, 0x00, 0x00, 0x00, 0x70, 0x00, 0x00, 0x00, 0x00, 0x00, 0x00, 0x0C, 
  0x00, 0x00, 0x00, 0x20, 0x02, 0x00, 0x70, 0x00, 0x60, 0x00, 0x00, 0x00, 
  0x00, 0x00, 0x00, 0x0E, 0x00, 0x00, 0x00, 0x60, 0x08, 0x00, 0xFE, 0x01, 
  0xE0, 0x00, 0x00, 0x00, 0x00, 0x00, 0x00, 0x0E, 0x00, 0x00, 0x00, 0x30, 
  0x0C, 0x00, 0xFE, 0x07, 0xE0, 0x00, 0x00, 0x00, 0x00, 0x00, 0x00, 0x06, 
  0x00, 0x00, 0x00, 0x08, 0x04, 0x00, 0x07, 0x07, 0xC0, 0x00, 0x00, 0x00, 
  0x00, 0x00, 0x00, 0x07, 0x00, 0x00, 0x00, 0x04, 0x04, 0x80, 0x03, 0x0E, 
  0xE0, 0x00, 0x00, 0x00, 0x00, 0x00, 0x00, 0x07, 0x00, 0x00, 0x00, 0x2C, 
  0x18, 0x80, 0x03, 0x0E, 0xC0, 0x00, 0x00, 0x00, 0x00, 0x00, 0x00, 0x03, 
  0x00, 0x00, 0x00, 0x30, 0x10, 0xC0, 0x01, 0x0C, 0xC0, 0x00, 0x00, 0x00, 
  0x00, 0x00, 0x00, 0x07, 0x00, 0x00, 0x00, 0x0C, 0x20, 0x80, 0x01, 0x1C, 
  0xC0, 0x00, 0x00, 0x00, 0x00, 0x00, 0x00, 0x03, 0x00, 0x00, 0x00, 0x04, 
  0x10, 0x80, 0x01, 0x0C, 0xC0, 0x01, 0x00, 0x00, 0x00, 0x00, 0x00, 0x03, 
  0x00, 0x00, 0x00, 0x02, 0x10, 0x80, 0x03, 0x0E, 0xC0, 0x00, 0x00, 0x00, 
  0x00, 0x00, 0x00, 0x03, 0x00, 0x00, 0x00, 0x07, 0x60, 0x80, 0x03, 0x0E, 
  0xC0, 0x01, 0x00, 0x00, 0x00, 0x00, 0x80, 0x03, 0x00, 0x00, 0x00, 0x0C, 
  0x80, 0x00, 0x8F, 0x07, 0xC0, 0x00, 0x00, 0x00, 0x00, 0x00, 0x00, 0x03, 
  0x00, 0x00, 0x00, 0x04, 0xC0, 0x00, 0xFE, 0x03, 0xC0, 0x01, 0x00, 0x00, 
  0x00, 0x00, 0x00, 0x03, 0x00, 0x00, 0x00, 0x02, 0x30, 0x00, 0xFC, 0x01, 
  0xC0, 0x00, 0x00, 0x00, 0x00, 0x00, 0x80, 0x03, 0x00, 0x00, 0x80, 0x01, 
  0x10, 0x00, 0x20, 0x00, 0xC0, 0x01, 0x00, 0x00, 0x00, 0x00, 0x80, 0x03, 
  0x00, 0x00, 0x00, 0x04, 0x60, 0x00, 0x00, 0x00, 0xC0, 0x00, 0x00, 0x00, 
  0x00, 0x00, 0x00, 0x03, 0x00, 0x00, 0xE0, 0x1B, 0x80, 0x01, 0x00, 0x00, 
  0xC0, 0x01, 0x00, 0x00, 0x00, 0x00, 0x80, 0x03, 0x00, 0x00, 0x00, 0x08, 
  0x00, 0x03, 0x00, 0x00, 0xC0, 0x00, 0x00, 0x00, 0x00, 0x00, 0x00, 0x03, 
  0x00, 0x00, 0x00, 0x08, 0x00, 0x04, 0x00, 0x00, 0xC0, 0x01, 0x00, 0x00, 
  0x00, 0x00, 0x80, 0x03, 0x00, 0x00, 0x00, 0x06, 0xE0, 0x07, 0x00, 0x00, 
  0xC0, 0x00, 0x00, 0x00, 0x00, 0x00, 0x00, 0x03, 0x00, 0x00, 0x80, 0x01, 
  0x20, 0x00, 0x00, 0x00, 0xC0, 0x01, 0x00, 0x00, 0x00, 0x00, 0x80, 0x03, 
  0x00, 0x00, 0x60, 0x00, 0xC0, 0x01, 0x00, 0x00, 0xC0, 0x00, 0x00, 0x00, 
  0x00, 0x00, 0x00, 0x03, 0x00, 0x00, 0x18, 0x00, 0x00, 0x02, 0x00, 0x00, 
  0xC0, 0x00, 0x00, 0x00, 0x00, 0x00, 0x00, 0x03, 0x00, 0x00, 0x04, 0x00, 
  0x00, 0x8C, 0x44, 0x51, 0xD4, 0x01, 0x00, 0x00, 0x00, 0x00, 0x80, 0x03, 
  0x00, 0x00, 0x02, 0x00, 0x00, 0xF0, 0xFF, 0xFF, 0xFF, 0x00, 0x00, 0x00, 
  0x00, 0x00, 0x00, 0x03, 0x00, 0x00, 0x01, 0x03, 0x00, 0xE0, 0xFF, 0xFF, 
  0x7F, 0x00, 0x00, 0x00, 0x00, 0x00, 0x00, 0x03, 0x00, 0x80, 0xD1, 0x02, 
  0x00, 0xC0, 0x02, 0x00, 0x00, 0x00, 0x00, 0x00, 0x00, 0x00, 0x80, 0x03, 
  0x00, 0x00, 0x2D, 0x00, 0x40, 0x80, 0x7F, 0x00, 0x00, 0x00, 0x00, 0x00, 
  0x00, 0x00, 0x00, 0x03, 0x00, 0x00, 0x00, 0x03, 0xC0, 0x07, 0xFF, 0x03, 
  0x00, 0x00, 0x00, 0x00, 0x00, 0x00, 0x00, 0x03, 0x00, 0x00, 0x80, 0x01, 
  0x40, 0xF4, 0xF1, 0x0F, 0x00, 0x00, 0x00, 0x00, 0x00, 0x00, 0x80, 0x07, 
  0x00, 0x00, 0x80, 0x00, 0x40, 0x80, 0x00, 0x7F, 0x00, 0x00, 0x00, 0x00, 
  0x00, 0x00, 0x00, 0x07, 0x00, 0x00, 0x60, 0x00, 0x80, 0x00, 0x00, 0xF8, 
  0x00, 0x00, 0x00, 0x00, 0x00, 0x00, 0x00, 0x07, 0x00, 0x00, 0x10, 0x00, 
  0x00, 0x03, 0x00, 0xE0, 0x01, 0x00, 0x00, 0x00, 0x00, 0x00, 0x80, 0x07, 
  0x00, 0x00, 0x0C, 0x00, 0x00, 0x02, 0x00, 0x80, 0x03, 0x00, 0x00, 0x00, 
  0x00, 0x00, 0x00, 0x0F, 0x00, 0x00, 0x02, 0x00, 0x00, 0x0C, 0x00, 0x00, 
  0x07, 0x00, 0x00, 0x00, 0x00, 0x00, 0x00, 0x0F, 0x00, 0x00, 0x01, 0x00, 
  0x00, 0x30, 0x00, 0x00, 0x0E, 0x00, 0x00, 0x00, 0x00, 0x00, 0x00, 0x1F, 
  0x00, 0x00, 0x01, 0x00, 0x00, 0x40, 0x00, 0x00, 0x1E, 0x00, 0x00, 0x00, 
  0x00, 0x00, 0x80, 0x1F, 0x00, 0x80, 0x00, 0x00, 0x00, 0x80, 0x00, 0x00, 
  0x1C, 0x00, 0x00, 0x00, 0x00, 0x00, 0x00, 0x3B, 0x00, 0x80, 0x00, 0x03, 
  0x00, 0x80, 0x01, 0x00, 0x38, 0x00, 0x00, 0x00, 0x00, 0x00, 0x00, 0x73, 
  0x00, 0x80, 0xF8, 0x02, 0x00, 0x00, 0x01, 0x00, 0x30, 0x00, 0x00, 0x00, 
  0x00, 0x00, 0x00, 0xF3, 0x00, 0x40, 0x06, 0x02, 0xC0, 0x01, 0x01, 0x00, 
  0x70, 0x00, 0x00, 0x00, 0x00, 0x00, 0x00, 0xC3, 0x01, 0x80, 0x81, 0x01, 
  0x40, 0x0E, 0x02, 0x00, 0x70, 0x00, 0x00, 0x00, 0x00, 0x00, 0x80, 0xC3, 
  0x07, 0x80, 0x60, 0x00, 0x40, 0x30, 0x01, 0x00, 0x60, 0x00, 0x00, 0x00, 
  0x00, 0x00, 0x00, 0x03, 0x1F, 0x00, 0x10, 0x00, 0x80, 0xC0, 0x01, 0x00, 
  0x60, 0x00, 0x00, 0x00, 0x00, 0x00, 0x80, 0x03, 0x7C, 0x00, 0x18, 0x06, 
  0x00, 0x03, 0x00, 0x00, 0xE0, 0x00, 0x00, 0x00, 0x00, 0x00, 0x00, 0x03, 
  0xF0, 0x0F, 0xEC, 0x05, 0x00, 0x1C, 0x02, 0x00, 0xC0, 0x00, 0x00, 0x00, 
  0x00, 0x00, 0x00, 0x03, 0xC0, 0xFF, 0xFF, 0x07, 0x00, 0xF0, 0xFF, 0x1F, 
  0xE0, 0x00, 0x00, 0x00, 0x00, 0x00, 0x00, 0x03, 0x00, 0xF8, 0xFF, 0x03, 
  0x00, 0xE0, 0xFB, 0xFF, 0xC1, 0x00, 0x00, 0x00, 0x00, 0x00, 0x00, 0x03, 
  0x00, 0x00, 0x00, 0x01, 0xE0, 0x6F, 0x00, 0xE0, 0xCF, 0x00, 0x00, 0x00, 
  0x00, 0x00, 0x00, 0x03, 0x00, 0x00, 0xC0, 0x00, 0x40, 0x10, 0x00, 0x00, 
  0xFF, 0x01, 0x00, 0x00, 0x00, 0x00, 0x00, 0x07, 0x00, 0x00, 0x20, 0x00, 
  0xC0, 0x00, 0x00, 0x00, 0xFC, 0x00, 0x00, 0x00, 0x00, 0x00, 0x00, 0x06, 
  0x00, 0x00, 0x18, 0x00, 0x00, 0x01, 0x00, 0x00, 0xF0, 0x00, 0x00, 0x00, 
  0x00, 0x00, 0x00, 0x0E, 0x00, 0x00, 0x04, 0x00, 0x00, 0x02, 0x00, 0x00, 
  0xC0, 0x00, 0x00, 0x00, 0x00, 0x00, 0x00, 0x0E, 0x00, 0x00, 0x02, 0x00, 
  0x00, 0x0C, 0x00, 0x00, 0xC0, 0x01, 0x00, 0x00, 0x00, 0x00, 0x00, 0x0E, 
  0x00, 0x00, 0x03, 0x00, 0x00, 0x30, 0x00, 0x00, 0xC0, 0x00, 0x00, 0x00, 
  0x00, 0x00, 0x00, 0x1C, 0x00, 0x00, 0x7D, 0x00, 0x00, 0x60, 0x00, 0x00, 
  0xC0, 0x01, 0x00, 0x00, 0x00, 0x00, 0x00, 0x38, 0x00, 0x00, 0x80, 0x00, 
  0x00, 0x80, 0x00, 0x00, 0xC0, 0x00, 0x00, 0x00, 0x00, 0x00, 0x00, 0x38, 
  0x00, 0x00, 0x80, 0x00, 0x00, 0x80, 0x00, 0x00, 0xC0, 0x00, 0x00, 0x00, 
  0x00, 0x00, 0x00, 0x70, 0x00, 0x00, 0x40, 0x00, 0x00, 0x03, 0x01, 0x00, 
  0xC0, 0x01, 0x00, 0x00, 0x00, 0x00, 0x00, 0xE0, 0x00, 0x00, 0x30, 0x00, 
  0x00, 0x0D, 0x01, 0x00, 0xC0, 0x00, 0x00, 0x00, 0x00, 0x00, 0x00, 0xC0, 
  0x03, 0x00, 0x0C, 0x00, 0x00, 0xF1, 0x01, 0x00, 0xC0, 0x01, 0x00, 0x00, 
  0x00, 0x00, 0x00, 0x80, 0x07, 0x00, 0x03, 0x00, 0x00, 0x06, 0x00, 0x00, 
  0xC0, 0x00, 0x00, 0x00, 0x00, 0x00, 0x00, 0x00, 0x3F, 0x00, 0x01, 0x00, 
  0x00, 0x18, 0x00, 0x00, 0xC0, 0x00, 0x00, 0x00, 0x00, 0x00, 0x00, 0x00, 
  0xFC, 0x81, 0x20, 0x00, 0x00, 0x60, 0x00, 0x00, 0xC0, 0x00, 0x00, 0x00, 
  0x00, 0x00, 0x00, 0x00, 0xF0, 0xFF, 0xFC, 0x00, 0x00, 0x80, 0x00, 0x00, 
  0xC0, 0x01, 0x00, 0x00, 0x00, 0x00, 0x00, 0x00, 0x00, 0xFF, 0xFF, 0x00, 
  0x00, 0x80, 0x01, 0x00, 0xC0, 0x00, 0x00, 0x00, 0x00, 0x00, 0x00, 0x00, 
  0x00, 0xD0, 0xFF, 0x00, 0x00, 0x0E, 0x01, 0x00, 0xC0, 0x00, 0x00, 0x00, 
  0x00, 0x00, 0x00, 0x88, 0x88, 0x84, 0x3C, 0x00, 0x00, 0xE1, 0x03, 0x00, 
  0xC0, 0x01, 0x00, 0x00, 0x00, 0x00, 0x00, 0xFF, 0xFF, 0xFF, 0x07, 0x00, 
  0x00, 0x01, 0x00, 0x00, 0xC0, 0x00, 0x00, 0x00, 0x00, 0x00, 0x00, 0xFF, 
  0xFF, 0xFF, 0x01, 0x00, 0x00, 0x06, 0x00, 0x00, 0xC0, 0x00, 0x00, 0x00, 
  0x00, 0x00, 0x80, 0x03, 0x00, 0x80, 0x01, 0x00, 0x00, 0x38, 0x00, 0x00, 
  0xC0, 0x00, 0x00, 0x00, 0x00, 0x00, 0x00, 0x03, 0x00, 0x00, 0x02, 0x00, 
  0x00, 0xC0, 0x00, 0x00, 0xC0, 0x00, 0x00, 0x00, 0x00, 0x00, 0x00, 0x03, 
  0x00, 0x00, 0x00, 0x00, 0x00, 0x00, 0x01, 0x00, 0xC0, 0x00, 0x00, 0x00, 
  0x00, 0x00, 0x80, 0x03, 0x00, 0x00, 0x03, 0x00, 0x00, 0x80, 0x00, 0x00, 
  0xC0, 0x01, 0x00, 0x00, 0x00, 0x00, 0x00, 0x03, 0x00, 0x80, 0x01, 0x00, 
  0x00, 0x80, 0x00, 0x00, 0xC0, 0x00, 0x00, 0x00, 0x00, 0x00, 0x00, 0x03, 
  0x00, 0x40, 0x00, 0x00, 0x00, 0x80, 0x00, 0x00, 0xC0, 0x01, 0x00, 0x00, 
  0x00, 0x00, 0x80, 0x03, 0x00, 0x60, 0x00, 0x18, 0x00, 0x80, 0x00, 0x00, 
  0xC0, 0x00, 0x00, 0x00, 0x00, 0x00, 0x00, 0x03, 0x00, 0x10, 0x00, 0x14, 
  0x00, 0x00, 0x03, 0x00, 0xC0, 0x01, 0x00, 0x00, 0x00, 0x00, 0x80, 0x03, 
  0x00, 0x10, 0x80, 0x13, 0x00, 0x00, 0x02, 0x00, 0xC0, 0x00, 0x00, 0x00, 
  0x00, 0x00, 0x00, 0x03, 0x00, 0x0A, 0x2E, 0x10, 0x00, 0x00, 0x08, 0x00, 
  0xC0, 0x01, 0x00, 0x00, 0x00, 0x00, 0x80, 0x03, 0xC0, 0x0F, 0x06, 0x10, 
  0x00, 0x00, 0x08, 0x00, 0xC0, 0x00, 0x00, 0x00, 0x00, 0x00, 0x80, 0x03, 
  0xE0, 0x8F, 0x00, 0x20, 0x78, 0x00, 0x10, 0x00, 0xC0, 0x01, 0x00, 0x00, 
  0x00, 0x00, 0x00, 0x03, 0xE0, 0xE8, 0x00, 0x10, 0x88, 0x3B, 0x10, 0x00, 
  0xC0, 0x00, 0x00, 0x00, 0x00, 0x00, 0x80, 0x03, 0x70, 0xF8, 0x00, 0x20, 
  0x08, 0xC0, 0x20, 0x00, 0xC0, 0x01, 0x00, 0x00, 0x00, 0x00, 0x80, 0x03, 
  0x30, 0xC0, 0x01, 0x10, 0x08, 0x00, 0x21, 0x00, 0xC0, 0x00, 0x00, 0x00, 
  0x00, 0x00, 0x80, 0x03, 0x38, 0x80, 0x01, 0x20, 0x08, 0x00, 0x26, 0x00, 
  0xE0, 0x00, 0x00, 0x00, 0x00, 0x00, 0x00, 0x03, 0x38, 0x80, 0x01, 0x10, 
  0x08, 0x00, 0x18, 0x00, 0xC0, 0x00, 0x00, 0x00, 0x00, 0x00, 0x80, 0x03, 
  0x38, 0xC0, 0x01, 0x20, 0x08, 0x00, 0x00, 0x00, 0xC0, 0x00, 0x00, 0x00, 
  0x00, 0x00, 0x00, 0x03, 0x30, 0xC0, 0x01, 0x10, 0x08, 0x00, 0x00, 0x00, 
  0xE0, 0x00, 0x00, 0x00, 0x00, 0x00, 0x00, 0x03, 0x70, 0xC0, 0x00, 0x10, 
  0x08, 0x00, 0x00, 0x00, 0xE0, 0x00, 0x00, 0x00, 0x00, 0x00, 0x00, 0x07, 
  0xF0, 0xF0, 0x00, 0x10, 0x08, 0x00, 0x00, 0x00, 0x60, 0x00, 0x00, 0x00, 
  0x00, 0x00, 0x00, 0x07, 0xC0, 0x7F, 0x00, 0x10, 0x08, 0x00, 0x00, 0x00, 
  0x60, 0x00, 0x00, 0x00, 0x00, 0x00, 0x00, 0x07, 0xC0, 0x3F, 0x00, 0x10, 
  0x08, 0x00, 0x00, 0x00, 0x70, 0x00, 0x00, 0x00, 0x00, 0x00, 0x00, 0x06, 
  0x00, 0x06, 0x00, 0x10, 0x08, 0x00, 0x00, 0x00, 0x38, 0x00, 0x00, 0x00, 
  0x00, 0x00, 0x00, 0x0E, 0x00, 0x00, 0x00, 0x10, 0x08, 0x00, 0x00, 0x00, 
  0x38, 0x00, 0x00, 0x00, 0x00, 0x00, 0x00, 0x1C, 0x00, 0x00, 0x00, 0x08, 
  0x10, 0x00, 0x00, 0x00, 0x1C, 0x00, 0x00, 0x00, 0x00, 0x00, 0x00, 0x1C, 
  0x00, 0x00, 0x00, 0x04, 0x10, 0x00, 0x00, 0x00, 0x0E, 0x00, 0x00, 0x00, 
  0x00, 0x00, 0x00, 0x38, 0x00, 0x00, 0x00, 0x02, 0x10, 0x00, 0x00, 0x00, 
  0x0F, 0x00, 0x00, 0x00, 0x00, 0x00, 0x00, 0xF0, 0x00, 0x00, 0x00, 0x01, 
  0x20, 0x00, 0x00, 0xC0, 0x03, 0x00, 0x00, 0x00, 0x00, 0x00, 0x00, 0xE0, 
  0x01, 0x00, 0x80, 0x01, 0x40, 0x00, 0x00, 0xF0, 0x01, 0x00, 0x00, 0x00, 
  0x00, 0x00, 0x00, 0xC0, 0x07, 0x00, 0x40, 0x00, 0x80, 0x00, 0x00, 0xF8, 
  0x00, 0x00, 0x00, 0x00, 0x00, 0x00, 0x00, 0x00, 0x1F, 0x00, 0x40, 0x00, 
  0x00, 0x01, 0x00, 0x3E, 0x00, 0x00, 0x00, 0x00, 0x00, 0x00, 0x00, 0x00, 
  0xFC, 0x00, 0x20, 0x00, 0x00, 0x06, 0xE0, 0x0F, 0x00, 0x00, 0x00, 0x00, 
  0x00, 0x00, 0x00, 0x00, 0xF0, 0x07, 0x10, 0x00, 0x00, 0x0C, 0xFE, 0x03, 
  0x00, 0x00, 0x00, 0x00, 0x00, 0x00, 0x00, 0x00, 0x80, 0xFF, 0x19, 0x00, 
  0x00, 0xD8, 0xBF, 0x00, 0x00, 0x00, 0x00, 0x00, 0x00, 0x00, 0x00, 0x00, 
  0x00, 0xFE, 0xFF, 0xBB, 0xFD, 0xFF, 0x07, 0x00, 0x00, 0x00, 0x00, 0x00, 
  0x00, 0x00, 0x00, 0x00, 0x00, 0xA0, 0xFF, 0xFF, 0xFF, 0xBF, 0x00, 0x00, 
  0x00, 0x00, 0x00, 0x00, 0x00, 0x00, 0x00, 0x00, 0x00, 0x00, 0xD0, 0xFF, 
  0x3F, 0x01, 0x00, 0x00, 0x00, 0x00, 0x00, 0x00, 0x00, 0x00, 0x00, 0x00, 
  0x00, 0x00, 0x00, 0x00, 0x00, 0x00, 0x00, 0x00, 0x00, 0x00, 0x00, 0x00, 
  0x00, 0x00, 0x00, 0x00, 0x00, 0x00, 0x00, 0x00, 0x00, 0x00, 0x00, 0x00, 
  0x00, 0x00, 0x00, 0x00, 0x00, 0x00, 0x00, 0x00, 0x00, 0x00, 0x00, 0x00, 
  0x00, 0x00, 0x00, 0x00, 0x00, 0x00, 0x00, 0x00, };
